<svg width="591" height="260" viewBox="0 0 591 260" fill="none" xmlns="http://www.w3.org/2000/svg">
<path d="M224.084 243.905H176.827C175.547 243.903 174.32 243.394 173.415 242.489C172.511 241.585 172.002 240.358 172 239.078V173.934C172.002 172.654 172.511 171.427 173.415 170.522C174.32 169.618 175.547 169.109 176.827 169.107H224.084C225.364 169.109 226.591 169.618 227.496 170.522C228.401 171.427 228.91 172.654 228.911 173.934V239.078C228.91 240.358 228.401 241.585 227.496 242.489C226.591 243.394 225.364 243.903 224.084 243.905Z" fill="#3F3F46"/>
<path d="M138.084 243.905H90.8269C89.5472 243.903 88.3204 243.394 87.4155 242.489C86.5106 241.585 86.0015 240.358 86 239.078V173.934C86.0015 172.654 86.5106 171.427 87.4155 170.522C88.3204 169.618 89.5472 169.109 90.8269 169.107H138.084C139.364 169.109 140.591 169.618 141.496 170.522C142.401 171.427 142.91 172.654 142.911 173.934V239.078C142.91 240.358 142.401 241.585 141.496 242.489C140.591 243.394 139.364 243.903 138.084 243.905Z" fill="#3F3F46"/>
<path d="M52.0842 242.907H4.82687C3.54721 242.906 2.32036 242.479 1.41547 241.719C0.51057 240.959 0.0015272 239.929 0 238.855V184.16C0.0015272 183.085 0.51057 182.055 1.41547 181.295C2.32036 180.536 3.54721 180.108 4.82687 180.107H52.0842C53.3639 180.108 54.5907 180.536 55.4956 181.295C56.4005 182.055 56.9095 183.085 56.9111 184.16V238.855C56.9095 239.929 56.4005 240.959 55.4956 241.719C54.5907 242.479 53.3639 242.906 52.0842 242.907Z" fill="#3F3F46"/>
<path d="M310.264 243.905H263.007C261.727 243.903 260.5 243.394 259.595 242.489C258.69 241.585 258.181 240.358 258.18 239.078V112.144C258.181 110.865 258.69 109.638 259.595 108.733C260.5 107.828 261.727 107.319 263.007 107.318H310.264C311.544 107.319 312.77 107.828 313.675 108.733C314.58 109.638 315.089 110.865 315.091 112.144V239.078C315.089 240.358 314.58 241.585 313.675 242.489C312.77 243.394 311.544 243.903 310.264 243.905Z" fill="#3F3F46"/>
<path d="M396.444 243.905H349.186C347.907 243.903 346.68 243.394 345.775 242.489C344.87 241.585 344.361 240.358 344.359 239.078V173.934C344.361 172.654 344.87 171.427 345.775 170.522C346.68 169.618 347.907 169.109 349.186 169.107H396.444C397.723 169.109 398.95 169.618 399.855 170.522C400.76 171.427 401.269 172.654 401.27 173.934V239.078C401.269 240.358 400.76 241.585 399.855 242.489C398.95 243.394 397.723 243.903 396.444 243.905Z" fill="#3F3F46"/>
<path d="M482.623 243.905H435.366C434.115 243.932 432.905 243.462 432 242.598C431.096 241.734 430.57 240.547 430.539 239.297V87.5355C430.57 86.285 431.096 85.0979 432 84.2342C432.905 83.3706 434.115 82.9007 435.366 82.9276H482.623C483.874 82.9007 485.084 83.3706 485.989 84.2342C486.893 85.0979 487.419 86.285 487.45 87.5355V239.297C487.419 240.547 486.894 241.734 485.989 242.598C485.084 243.462 483.874 243.932 482.623 243.905Z" fill="#3F3F46"/>
<path d="M568.803 243.905H521.545C520.266 243.903 519.039 243.394 518.134 242.489C517.229 241.585 516.72 240.358 516.719 239.078V43.8512C516.72 42.5715 517.229 41.3447 518.134 40.4398C519.039 39.535 520.266 39.0261 521.545 39.0247H568.803C570.082 39.0261 571.309 39.535 572.214 40.4398C573.119 41.3447 573.628 42.5715 573.63 43.8512V239.078C573.628 240.358 573.119 241.585 572.214 242.489C571.309 243.394 570.082 243.903 568.803 243.905Z" fill="#3F3F46"/>
<path d="M200.456 149.595C205.844 149.595 210.212 145.227 210.212 139.839C210.212 134.45 205.844 130.082 200.456 130.082C195.067 130.082 190.699 134.45 190.699 139.839C190.699 145.227 195.067 149.595 200.456 149.595Z" fill="#22C55E"/>
<path d="M119.756 149.512C125.144 149.512 129.512 145.144 129.512 139.756C129.512 134.368 125.144 130 119.756 130C114.368 130 110 134.368 110 139.756C110 145.144 114.368 149.512 119.756 149.512Z" fill="#22C55E"/>
<path d="M27.7562 169.512C33.1444 169.512 37.5124 165.144 37.5124 159.756C37.5124 154.368 33.1444 150 27.7562 150C22.368 150 18 154.368 18 159.756C18 165.144 22.368 169.512 27.7562 169.512Z" fill="#22C55E"/>
<path d="M286.635 86.1796C292.024 86.1796 296.392 81.8116 296.392 76.4234C296.392 71.0352 292.024 66.6672 286.635 66.6672C281.247 66.6672 276.879 71.0352 276.879 76.4234C276.879 81.8116 281.247 86.1796 286.635 86.1796Z" fill="#22C55E"/>
<path d="M372.815 149.595C378.203 149.595 382.571 145.227 382.571 139.839C382.571 134.45 378.203 130.082 372.815 130.082C367.427 130.082 363.059 134.45 363.059 139.839C363.059 145.227 367.427 149.595 372.815 149.595Z" fill="#22C55E"/>
<path d="M458.994 55.2851C464.383 55.2851 468.751 50.9171 468.751 45.5289C468.751 40.1407 464.383 35.7727 458.994 35.7727C453.606 35.7727 449.238 40.1407 449.238 45.5289C449.238 50.9171 453.606 55.2851 458.994 55.2851Z" fill="#22C55E"/>
<path d="M545.174 19.5124C550.562 19.5124 554.93 15.1444 554.93 9.75618C554.93 4.36799 550.562 0 545.174 0C539.786 0 535.418 4.36799 535.418 9.75618C535.418 15.1444 539.786 19.5124 545.174 19.5124Z" fill="#22C55E"/>
<path d="M373.021 142.024L286.635 77.321L201.431 141.14L199.481 138.537L286.635 73.257L372.609 137.653L458.044 44.159L458.387 44.02L544.566 9.297L545.782 12.314L459.945 46.898L373.021 142.024Z" fill="#22C55E"/>
<path d="M585.566 259.47H538.309C537.029 259.469 535.802 258.96 534.897 258.055C533.992 257.15 533.483 255.923 533.482 254.644V59.4168C533.483 58.1372 533.992 56.9103 534.897 56.0055C535.802 55.1007 537.029 54.5918 538.309 54.5903H585.566C586.846 54.5918 588.072 55.1007 588.977 56.0055C589.882 56.9103 590.391 58.1372 590.393 59.4168V254.644C590.391 255.923 589.882 257.15 588.977 258.055C588.072 258.96 586.846 259.469 585.566 259.47Z" fill="#22C55E"/>
<line x1="200" y1="140.5" x2="120" y2="140.5" stroke="#22C55E" stroke-width="3"/>
<line x1="120.334" y1="140.462" x2="28.3338" y2="161.462" stroke="#22C55E" stroke-width="3"/>
</svg>
